<svg height="512pt" viewBox="0 0 512 512" width="512pt" xmlns="http://www.w3.org/2000/svg">
  <path d="m308 497h-104v-129h104zm0 0" fill="#004fc4"/>
  <path d="m308 497h-52v-129h52zm0 0" fill="#003480"/>
  <path d="m512 398h-512v-368h512zm0 0" fill="#47f5ff"/>
  <path d="m256 30h256v368h-256zm0 0" fill="#69a7ff"/>
  <path d="m452 278h-280v-278h280zm0 0" fill="#004fc4"/>
  <path d="m310 308h142v30h-142zm0 0" fill="#ffcb00"/>
  <path d="m312 218c-43.5625 0-79-35.4375-79-79s35.4375-79 79-79 79 35.4375 79 79-35.4375 79-79 79zm0 0" fill="#f3eee9"/>
  <path d="m90 165c0 8.285156-6.714844 15-15 15s-15-6.714844-15-15 6.714844-15 15-15 15 6.714844 15 15zm0 0" fill="#69a7ff"/>
  <path d="m90 105c0 8.285156-6.714844 15-15 15s-15-6.714844-15-15 6.714844-15 15-15 15 6.714844 15 15zm0 0" fill="#e23e95"/>
  <path d="m90 225c0 8.285156-6.714844 15-15 15s-15-6.714844-15-15 6.714844-15 15-15 15 6.714844 15 15zm0 0" fill="#69a7ff"/>
  <path d="m60 308h82v30h-82zm0 0" fill="#fee362"/>
  <path d="m180 482h152v30h-152zm0 0" fill="#47f5ff"/>
  <path d="m256 482h76v30h-76zm0 0" fill="#69a7ff"/>
  <path d="m312 0h140v278h-140zm0 0" fill="#003480"/>
  <path d="m391 139c0-43.5625-35.4375-79-79-79v158c43.5625 0 79-35.4375 79-79zm0 0" fill="#e9dfda"/>
</svg>